<svg xmlns="http://www.w3.org/2000/svg" viewBox="0 0 24.12 35.72"><defs><style>.cls-1{fill:none;}.cls-2{fill:#6e6a6d;}</style></defs><g id="Layer_2" data-name="Layer 2"><g id="Layer_1-2" data-name="Layer 1"><rect class="cls-1" width="24.12" height="35.72"/><path class="cls-2" d="M14.3,18.86l-.11,0a.81.81,0,0,1-1-.47L12.24,16a3.66,3.66,0,0,0-4.85-2.09,3.71,3.71,0,0,0-1.95,4.71L6.3,21a.8.8,0,0,1-.47,1l-.11,0a.93.93,0,0,0-.53,1.2l.11.3a.32.32,0,0,0,.42.17l9.58-3.54a.37.37,0,0,0,.2-.45l-.11-.3A.78.78,0,0,0,14.3,18.86ZM12,22.37l-2.09.78a.21.21,0,0,0-.11.33A1.36,1.36,0,0,0,11.4,24a1.38,1.38,0,0,0,.89-1.48A.31.31,0,0,0,12,22.37Z"/><path class="cls-2" d="M18.34,18.19a5.78,5.78,0,0,0-.64-4.68,5.86,5.86,0,0,0-3.9-2.71c-.14,0-.25.06-.25.17l-.14.78a.18.18,0,0,0,.16.22,4.71,4.71,0,0,1,3.6,5.86.2.2,0,0,0,.14.25l.75.25C18.2,18.33,18.31,18.3,18.34,18.19Z"/><path class="cls-2" d="M15.27,15a3,3,0,0,0-2-1.37.22.22,0,0,0-.25.17l-.09.81a.21.21,0,0,0,.17.22,1.79,1.79,0,0,1,1.14.81,1.69,1.69,0,0,1,.2,1.36.18.18,0,0,0,.11.22l.75.31c.11.06.23,0,.28-.14A2.88,2.88,0,0,0,15.27,15Z"/></g></g></svg>