<?xml version="1.0" encoding="UTF-8"?><svg id="a" xmlns="http://www.w3.org/2000/svg" viewBox="0 0 22 16.92"><path d="M11.02,0c2.64,0,4.76,2.08,4.76,4.65v1.18c-1.57-.18-3.18-.25-4.76-.25s-3.18,.07-4.76,.25v-1.18C6.26,2.11,8.38,0,11.02,0Zm8.64,13.6l.48-4.08c1.06,.18,1.87,1.04,1.87,2,0,1.14-1.06,2.08-2.34,2.08Zm-17.31,0c-1.28,0-2.34-.93-2.34-2.08,0-1,.81-1.82,1.87-2l.48,4.08Zm15.67-6.76c-2.42-.25-4.72-.36-6.96-.36s-4.58,.11-6.96,.36c-.81,.07-1.39,.79-1.28,1.54l.73,6.94c.07,.64,.59,1.18,1.28,1.25,2.05,.25,4.14,.36,6.26,.36s4.21-.11,6.26-.36c.66-.07,1.21-.61,1.28-1.25l.73-6.94c0-.79-.55-1.47-1.35-1.54ZM6.99,13.13c-.59,0-1.02-.57-1.02-1.32s.48-1.32,1.02-1.32,1.02,.57,1.02,1.32-.44,1.32-1.02,1.32Zm6.11,1.47c0,.07-.04,.14-.07,.18-.04,.04-.11,.07-.18,.07h-3.62c-.07,0-.15-.04-.18-.07-.04-.04-.07-.11-.07-.18v-.64c0-.14,.11-.25,.26-.25h.07c.15,0,.26,.11,.26,.25v.32h2.97v-.32c0-.14,.11-.25,.26-.25h.07c.15,0,.26,.11,.26,.25v.64Zm1.94-1.47c-.59,0-1.02-.57-1.02-1.32s.48-1.32,1.02-1.32,1.02,.57,1.02,1.32-.44,1.32-1.02,1.32Z" style="fill:#fff;"/></svg>