<?xml version="1.0" encoding="UTF-8"?><svg id="a" xmlns="http://www.w3.org/2000/svg" viewBox="0 0 9.79 9.79"><path d="M4.89,0C2.2,0,0,2.2,0,4.89s2.2,4.89,4.89,4.89,4.89-2.2,4.89-4.89S7.58,0,4.89,0Zm0,8.56c-2.02,0-3.67-1.65-3.67-3.67S2.87,1.22,4.89,1.22s3.67,1.65,3.67,3.67-1.65,3.67-3.67,3.67Zm.69-3.63c-.06-.06-.08-.14-.08-.22v-1.96c0-.16-.14-.31-.31-.31h-.61c-.16,0-.31,.14-.31,.31v2.47c0,.08,.04,.16,.08,.22l1.51,1.51c.12,.12,.31,.12,.43,0l.43-.43c.12-.12,.12-.31,0-.43l-1.14-1.16Z" style="fill:#706e6b; fill-rule:evenodd;"/></svg>