<?xml version="1.0" encoding="utf-8"?>
<!-- Generator: Adobe Illustrator 27.2.0, SVG Export Plug-In . SVG Version: 6.00 Build 0)  -->
<svg version="1.1" id="Layer_1" xmlns="http://www.w3.org/2000/svg" xmlns:xlink="http://www.w3.org/1999/xlink" x="0px" y="0px"
	 viewBox="0 0 13 13" style="enable-background:new 0 0 13 13;" xml:space="preserve">
<style type="text/css">
	.st0{fill:#104BB2;}
</style>
<path class="st0" d="M12.4,10.6v0.6c0,0.7-0.6,1.2-1.2,1.2h-10c-0.7,0-1.2-0.6-1.2-1.2v-0.6c0-1.5,1.8-2.4,3.4-3.2
	c0.1,0,0.1,0,0.2-0.1c0.1-0.1,0.3-0.1,0.4,0c0.7,0.4,1.4,0.7,2.2,0.7c0.8,0,1.6-0.2,2.2-0.7c0.1-0.1,0.3-0.1,0.4,0
	c0.1,0,0.1,0,0.2,0.1C10.7,8.2,12.4,9.1,12.4,10.6z"/>
<path class="st0" d="M6.2,6.8c1.7,0,3.1-1.5,3.1-3.4S7.9,0,6.2,0S3.1,1.5,3.1,3.4S4.5,6.8,6.2,6.8z"/>
</svg>
