<svg xmlns="http://www.w3.org/2000/svg" viewBox="0 0 32.61 32.61"><defs><style>.cls-1{fill:none;}.cls-2{fill:#fff;}</style></defs><g id="Layer_2" data-name="Layer 2"><g id="Layer_1-2" data-name="Layer 1"><circle class="cls-1" cx="16.3" cy="16.3" r="16.3"/><path class="cls-2" d="M24.15,21.35v.7a1.54,1.54,0,0,1-1.52,1.53H10.44a1.55,1.55,0,0,1-1.53-1.53v-.7c0-1.84,2.16-3,4.19-3.87l.19-.09a.49.49,0,0,1,.48,0,4.94,4.94,0,0,0,2.73.82,5.06,5.06,0,0,0,2.73-.82.49.49,0,0,1,.48,0l.19.09C22,18.37,24.15,19.48,24.15,21.35Zm-7.62-13a4,4,0,0,1,3.78,4.19,4,4,0,0,1-3.78,4.19,4,4,0,0,1-3.78-4.19A4,4,0,0,1,16.53,8.34Z"/></g></g></svg>