<?xml version="1.0" encoding="utf-8"?>
<!-- Generator: Adobe Illustrator 26.5.0, SVG Export Plug-In . SVG Version: 6.00 Build 0)  -->
<svg version="1.1" id="Layer_1" xmlns="http://www.w3.org/2000/svg" xmlns:xlink="http://www.w3.org/1999/xlink" x="0px" y="0px"
	 viewBox="0 0 47 40" style="enable-background:new 0 0 47 40;" xml:space="preserve">
<style type="text/css">
	.st0{fill:#DF8F16;}
</style>
<path class="st0" d="M46.1,34.1L26.8,1.9c-1.5-2.5-5.2-2.5-6.7,0L0.9,34.1C-0.7,36.7,1.2,40,4.2,40h38.6
	C45.8,40,47.7,36.7,46.1,34.1z M21.5,14.3c0-1.3,1-2.3,2.3-2.3c1.3,0,2.3,1,2.3,2.3V24c0,1.3-1,2.3-2.3,2.3c-1.3,0-2.3-1-2.3-2.3
	V14.3z M23.7,33.5c-1.3,0-2.3-1.1-2.3-2.3c0-1.3,1.1-2.3,2.3-2.3c1.3,0,2.3,1.1,2.3,2.3C26,32.4,25,33.5,23.7,33.5z"/>
</svg>
