<?xml version="1.0" encoding="utf-8"?>
<!-- Generator: Adobe Illustrator 24.1.2, SVG Export Plug-In . SVG Version: 6.00 Build 0)  -->
<svg version="1.1" id="Layer_1" xmlns="http://www.w3.org/2000/svg" xmlns:xlink="http://www.w3.org/1999/xlink" x="0px" y="0px"
	 viewBox="0 0 91.5 64.1" style="enable-background:new 0 0 91.5 64.1;" xml:space="preserve">
<style type="text/css">
	.st0{fill:#FFFFFF;}
</style>
<g id="Layer_2_1_">
	<g id="Layer_1-2">
		<path class="st0" d="M25.8,41.5c2-1.6,2.6-4.3,1.4-6.6c-4.4-8.5-2.5-19.1,5-25.6c0.4-0.3,0.8-0.7,1.2-1c1.9-1.4,1.9-4.2,0-5.5
			C28.2-0.9,21-1,15.5,3.1c-6.8,5.1-8.2,14.7-3.1,21.5c1.3,1.7,3,3.2,4.9,4.2C7.2,31,0,40,0,50.3c0,1.5,1.2,2.6,2.6,2.6
			c1.4,0,11.8,0.2,14.1,0.2C18.7,48.5,21.9,44.5,25.8,41.5z"/>
		<path class="st0" d="M73.6,28.7c7.4-4.2,10-13.5,5.8-20.9S65.9-2.2,58.5,2c-0.4,0.2-0.9,0.5-1.3,0.8c-1.6,1.2-1.7,3.6,0,4.7
			c8.4,5.4,12,16.2,8,25.8c-0.2,0.4-0.3,0.8-0.5,1.1c-1.2,2.3-0.5,5.1,1.6,6.7c4.3,3.1,7.7,7.4,9.7,12.4c3.9,0.3,7.8,0.2,11.7-0.1
			c1.5,0,3.8-1.7,3.8-3.2C91.5,39.7,84,30.7,73.6,28.7z"/>
		<path class="st0" d="M68.1,63.5c1.2,0,2.2-1.1,2-2.3c-0.4-2.8-1.4-5.5-2.9-7.8l-0.1,0c-3-4.9-7.9-8.3-13.6-9.4
			c-2.1-0.4-3.5-2.5-3.1-4.6c0.2-1.1,0.9-2.1,1.9-2.7c3-1.7,5.2-4.5,6.2-7.8c-0.3,0.1-0.5,0.1-0.8,0.2c0,0,0,0,0,0
			c0.3-0.1,0.5-0.2,0.8-0.2c0,0,0-0.1,0-0.1c0,0,0,0,0,0c0.3-1.1,0.5-2.3,0.5-3.5c0-5.3-3.2-10.2-8.2-12.2c-3.6-1.5-7.6-1.3-11,0.5
			c0,0,0,0,0,0c-4.4,2.2-7.2,6.8-7.2,11.7c0,1,0.1,2,0.4,2.9c0.1,0.3,0.1,0.5,0.2,0.8c0,0,0,0,0,0c1,3.3,3.3,6.1,6.3,7.8
			c1.9,1,2.6,3.4,1.6,5.3c-0.5,1-1.5,1.7-2.6,2c-5.4,1.2-10.1,4.5-13.1,9.3l-0.1,0c-1.4,2.3-2.4,5-2.8,7.7c-0.2,1.2,0.7,2.4,2,2.4
			C32.7,63.5,60.1,63.5,68.1,63.5z"/>
		<path class="st0" d="M58.7,28.8l-0.1-0.1c0,0,0,0.1,0,0.1L58.7,28.8z"/>
	</g>
</g>
</svg>
