<?xml version="1.0" encoding="utf-8"?>
<!-- Generator: Adobe Illustrator 27.3.1, SVG Export Plug-In . SVG Version: 6.00 Build 0)  -->
<svg version="1.1" id="Layer_1" xmlns="http://www.w3.org/2000/svg" xmlns:xlink="http://www.w3.org/1999/xlink" x="0px" y="0px"
	 viewBox="0 0 18 19" style="enable-background:new 0 0 18 19;" xml:space="preserve">
<style type="text/css">
	.st0{fill:#FFFEFD;}
</style>
<path class="st0" d="M5.4,14.5h0.7l-3.3-3.3v0.7c0,1-0.4,2-1,2.7l0.9,0.9C3.5,14.9,4.4,14.5,5.4,14.5L5.4,14.5z"/>
<path class="st0" d="M0,16.5h1.7L2.2,16l-0.9-0.9L0,16.5z"/>
<path class="st0" d="M17.1,3.1c0.2-0.2,0.3-0.4,0.2-0.7c0-0.2-0.1-0.5-0.3-0.7l-1.5-1.5C15.4,0.1,15.2,0,14.9,0
	c-0.2,0-0.5,0.1-0.7,0.2L2.9,10.4L7,14.4L17.1,3.1z"/>
<rect y="17.5" class="st0" width="17" height="1"/>
</svg>
