<?xml version="1.0" encoding="utf-8"?>
<!-- Generator: Adobe Illustrator 27.3.1, SVG Export Plug-In . SVG Version: 6.00 Build 0)  -->
<svg version="1.1" id="Layer_1" xmlns="http://www.w3.org/2000/svg" xmlns:xlink="http://www.w3.org/1999/xlink" x="0px" y="0px"
	 viewBox="0 0 16 16" style="enable-background:new 0 0 16 16;" xml:space="preserve">
<style type="text/css">
	.st0{fill:#FFB800;}
</style>
<path d="M2.7,11.6l-2.5,2.5C0.1,14.2,0,14.4,0,14.6c0,0.2,0.1,0.4,0.2,0.5c0.1,0.1,0.3,0.2,0.5,0.2h2.7L5,13.9L2.7,11.6z"/>
<path d="M15.8,2l-1.2-1.2c-0.1-0.1-0.3-0.2-0.5-0.2c-0.2,0-0.4,0.1-0.5,0.2L11,2.6l3,3l1.7-2.5C15.9,2.9,16,2.8,16,2.6
	C16,2.4,15.9,2.2,15.8,2L15.8,2z"/>
<path d="M6.5,13.1l6.8-6.8l-3-3l-6.8,6.8v0.8l2.3,2.3H6.5z"/>
<path class="st0" d="M4.2,15.4h11.3v-1.5H5.7L4.2,15.4z"/>
</svg>
