<?xml version="1.0" encoding="utf-8"?>
<!-- Generator: Adobe Illustrator 27.3.1, SVG Export Plug-In . SVG Version: 6.00 Build 0)  -->
<svg version="1.1" id="Layer_1" xmlns="http://www.w3.org/2000/svg" xmlns:xlink="http://www.w3.org/1999/xlink" x="0px" y="0px"
	 viewBox="0 0 18 12" style="enable-background:new 0 0 18 12;" xml:space="preserve">
<style type="text/css">
	.st0{fill:#CA3A48;}
</style>
<path class="st0" d="M15.2,0.3H5.8C5.2,0.3,4.7,0.6,4.3,1L0.8,4.6C0.4,4.9,0.2,5.5,0.2,6c0,0.5,0.2,1.1,0.6,1.4L4.3,11
	c0.4,0.4,0.9,0.6,1.5,0.6h9.4c0.5,0,1.1-0.2,1.5-0.6c0.4-0.4,0.6-0.9,0.6-1.5V2.4c0-0.5-0.2-1.1-0.6-1.5C16.3,0.6,15.7,0.3,15.2,0.3
	z M11.7,7.1c0.2,0.2,0.2,0.6,0,0.8c-0.2,0.2-0.6,0.2-0.8,0L9.9,6.8L8.8,7.9C8.6,8.1,8.2,8.1,8,7.9C7.8,7.6,7.8,7.3,8,7.1L9.1,6
	L8,4.9C7.8,4.7,7.8,4.4,8,4.1c0.2-0.2,0.6-0.2,0.8,0l1.1,1.1l1.1-1.1c0.2-0.2,0.6-0.2,0.8,0c0.2,0.2,0.2,0.6,0,0.8L10.7,6L11.7,7.1z
	"/>
</svg>
