<svg xmlns="http://www.w3.org/2000/svg" viewBox="0 0 32.61 32.61"><defs><style>.cls-1{fill:none;}.cls-2{fill:#fff;}</style></defs><g id="Layer_2" data-name="Layer 2"><g id="Layer_1-2" data-name="Layer 1"><circle class="cls-1" cx="16.3" cy="16.3" r="16.3"/><path class="cls-2" d="M14.79,11.9a3.34,3.34,0,0,1,2.35-1A3.29,3.29,0,0,1,20,12.58a3.9,3.9,0,0,1,1.6-.36,4,4,0,0,1,0,8,6.27,6.27,0,0,1-.79-.07,2.91,2.91,0,0,1-2.56,1.49A3.19,3.19,0,0,1,17,21.33a3.34,3.34,0,0,1-6.19-.18,4.48,4.48,0,0,1-.64.07,3.09,3.09,0,0,1-1.56-5.76A3.74,3.74,0,0,1,8.29,14a3.57,3.57,0,0,1,3.59-3.56,3.71,3.71,0,0,1,2.91,1.42"/></g></g></svg>