<?xml version="1.0" encoding="UTF-8"?><svg id="a" xmlns="http://www.w3.org/2000/svg" xmlns:xlink="http://www.w3.org/1999/xlink" viewBox="0 0 135.807 135.806"><defs><mask id="b" x="-.7638" y="-.7638" width="137" height="137" maskUnits="userSpaceOnUse"><g id="c"><rect x="-.7638" y="-.7638" width="137" height="137" style="fill:#fff;"/><path d="m62.3612,40.9894h50.0008c5.89,0,11.538,2.3393,15.704,6.5046,4.164,4.1643,6.504,9.8133,6.504,15.7028v40.6651c.005,4.417-1.477,8.709-4.205,12.185-2.727,3.476-6.543,5.934-10.836,6.981v2.666c.003,1.627-.442,3.222-1.287,4.612-.845,1.389-2.059,2.519-3.505,3.263-1.287.666-2.717,1.009-4.166,1.001-1.857.011-3.668-.573-5.167-1.667l-13.2493-9.459h-29.5841c-5.8905,0-11.5384-2.339-15.7038-6.504-4.1641-4.165-6.5037-9.814-6.5037-15.703v-2.2088c-.1224-1.2513.2909-2.4954,1.1353-3.4266.8453-.9312,2.0444-1.4616,3.302-1.4616,1.2566,0,2.4556.5304,3.301,1.4616.8444.9312,1.2577,2.1753,1.1363,3.4266v2.2918c.0104,3.533,1.4188,6.918,3.9173,9.416,2.4974,2.498,5.8823,3.906,9.4155,3.917h31.0814c.9197.006,1.8184.281,2.5833.791v.002l14.2908,10.249v-6.625c0-1.179.471-2.309,1.309-3.138.837-.829,1.971-1.29,3.15-1.278,2.858-.012,5.597-1.153,7.619-3.174,2.021-2.021,3.162-4.759,3.172-7.618v-40.6648c-.01-3.5322-1.419-6.918-3.917-9.4155-2.498-2.4986-5.883-3.9069-9.416-3.9173h-49.9994c-3.5322.0104-6.918,1.4187-9.4166,3.9162-2.4817,2.509-3.888,5.8874-3.9162,9.4166v13.6665c-.0345,1.3895-.6926,2.6901-1.7913,3.5418v-.0011l-16.6664,12.5001c-1.4858,1.0965-3.2792,1.6939-5.1248,1.7086-1.4451.0146-2.8732-.3139-4.1664-.9584-1.4754-.7387-2.7131-1.876-3.5753-3.2823-.8611-1.4072-1.3121-3.0269-1.3005-4.6758v-2.417c-4.3307-1.0055-8.1947-3.4464-10.9632-6.9263-2.7685-3.4788-4.2793-7.7926-4.2867-12.2394V23.4487c0-5.8539,2.3113-11.4715,6.4316-15.6304C11.7872,3.6591,17.3828,1.2955,23.2367,1.2401h49.9986c5.9618-.1112,11.7185,2.1782,15.9738,6.3561,4.2553,4.1769,6.6523,9.8896,6.6513,15.8525.1213,1.2514-.292,2.4954-1.1363,3.4266-.8453.9312-2.0444,1.4617-3.301,1.4617-1.2576,0-2.4566-.5305-3.301-1.4617-.8454-.9312-1.2576-2.1752-1.1363-3.4266-.0115-3.5332-1.4198-6.918-3.9173-9.4155-2.4985-2.4985-5.8833-3.9068-9.4165-3.9173H23.6534c-3.5333.0105-6.918,1.4188-9.4155,3.9173-2.4986,2.4975-3.9069,5.8823-3.9173,9.4155v40.6651c0,2.8625,1.1363,5.607,3.1609,7.6305,2.0233,2.0236,4.7677,3.1609,7.6305,3.1609,4.4584,0,4.4584,2.4589,4.4584,10.7914l14.9996-11.1661v-11.3333c.0201-5.8866,2.3541-11.5283,6.4997-15.7081,4.0544-4.0785,9.5411-6.4107,15.2915-6.4997Zm23.331,45.8315h-13.3328l17.7494-22.2492v13.3328h13.3332l-17.7498,22.2494v-13.333Z" style="fill-rule:evenodd;"/></g></mask></defs><path d="m62.3612,40.9894h50.0008c5.89,0,11.538,2.3393,15.704,6.5046,4.164,4.1643,6.504,9.8133,6.504,15.7028v40.6651c.005,4.417-1.477,8.709-4.205,12.185-2.727,3.476-6.543,5.934-10.836,6.981v2.666c.003,1.627-.442,3.222-1.287,4.612-.845,1.389-2.059,2.519-3.505,3.263-1.287.666-2.717,1.009-4.166,1.001-1.857.011-3.668-.573-5.167-1.667l-13.2493-9.459h-29.5841c-5.8905,0-11.5384-2.339-15.7038-6.504-4.1641-4.165-6.5037-9.814-6.5037-15.703v-2.2088c-.1224-1.2513.2909-2.4954,1.1353-3.4266.8453-.9312,2.0444-1.4616,3.302-1.4616,1.2566,0,2.4556.5304,3.301,1.4616.8444.9312,1.2577,2.1753,1.1363,3.4266v2.2918c.0104,3.533,1.4188,6.918,3.9173,9.416,2.4974,2.498,5.8823,3.906,9.4155,3.917h31.0814c.9197.006,1.8184.281,2.5833.791v.002l14.2908,10.249v-6.625c0-1.179.471-2.309,1.309-3.138.837-.829,1.971-1.29,3.15-1.278,2.858-.012,5.597-1.153,7.619-3.174,2.021-2.021,3.162-4.759,3.172-7.618v-40.6648c-.01-3.5322-1.419-6.918-3.917-9.4155-2.498-2.4986-5.883-3.9069-9.416-3.9173h-49.9994c-3.5322.0104-6.918,1.4187-9.4166,3.9162-2.4817,2.509-3.888,5.8874-3.9162,9.4166v13.6665c-.0345,1.3895-.6926,2.6901-1.7913,3.5418v-.0011l-16.6664,12.5001c-1.4858,1.0965-3.2792,1.6939-5.1248,1.7086-1.4451.0146-2.8732-.3139-4.1664-.9584-1.4754-.7387-2.7131-1.876-3.5753-3.2823-.8611-1.4072-1.3121-3.0269-1.3005-4.6758v-2.417c-4.3307-1.0055-8.1947-3.4464-10.9632-6.9263-2.7685-3.4788-4.2793-7.7926-4.2867-12.2394V23.4487c0-5.8539,2.3113-11.4715,6.4316-15.6304C11.7872,3.6591,17.3828,1.2955,23.2367,1.2401h49.9986c5.9618-.1112,11.7185,2.1782,15.9738,6.3561,4.2553,4.1769,6.6523,9.8896,6.6513,15.8525.1213,1.2514-.292,2.4954-1.1363,3.4266-.8453.9312-2.0444,1.4617-3.301,1.4617-1.2576,0-2.4566-.5305-3.301-1.4617-.8454-.9312-1.2576-2.1752-1.1363-3.4266-.0115-3.5332-1.4198-6.918-3.9173-9.4155-2.4985-2.4985-5.8833-3.9068-9.4165-3.9173H23.6534c-3.5333.0105-6.918,1.4188-9.4155,3.9173-2.4986,2.4975-3.9069,5.8823-3.9173,9.4155v40.6651c0,2.8625,1.1363,5.607,3.1609,7.6305,2.0233,2.0236,4.7677,3.1609,7.6305,3.1609,4.4584,0,4.4584,2.4589,4.4584,10.7914l14.9996-11.1661v-11.3333c.0201-5.8866,2.3541-11.5283,6.4997-15.7081,4.0544-4.0785,9.5411-6.4107,15.2915-6.4997Zm23.331,45.8315h-13.3328l17.7494-22.2492v13.3328h13.3332l-17.7498,22.2494v-13.333Z" style="fill:#1569c8; fill-rule:evenodd;"/><g style="mask:url(#b);"><path d="m112.36,40.9894v1.2363h.041l.04-.0027-.081-1.2336Zm-49.9988,0v-1.2362h-.0095l-.0096.0002.0191,1.236Zm50.0008,0v-1.2362h-.041l-.041.0027.082,1.2335Zm15.704,6.5047l.874-.8741h0l-.874.8741Zm6.504,56.3679h-1.236v.001l1.236-.001Zm-4.205,12.185l.973.763h0l-.973-.763Zm-10.836,6.981l-.293-1.201-.943.23v.971h1.236Zm0,2.666h-1.236v.002l1.236-.002Zm-1.287,4.612l-1.056-.643h0l1.056.643Zm-3.505,3.263l-.566-1.099-.002.001.568,1.098Zm-4.166,1.001l.007-1.237h-.015l.008,1.237Zm-5.167-1.667l.729-.999-.011-.007-.718,1.006Zm-13.2493-9.459l.7183-1.006-.3223-.23h-.396v1.236Zm-45.2879-6.504l-.8741.874h0l.8741-.874Zm-6.5037-17.9118h1.2363v-.0603l-.0059-.06-1.2304.1203Zm1.1353-3.4266l-.9153-.8309-.0005.0005.9158.8304Zm6.603,0l.9158-.8304-.0005-.0005-.9153.8309Zm1.1363,3.4266l-1.2305-.1193-.0057.0595v.0598h1.2362Zm0,2.2918h-1.2362v.003l1.2362-.003Zm3.9173,9.416l.8742-.874h0l-.8742.874Zm9.4155,3.917l-.004,1.237h.004v-1.237Zm31.0814,0l.007-1.236h-.007v1.236Zm2.5833.791h1.2362v-.661l-.5499-.367-.6863,1.028Zm0,.002h-1.2363v.634l.5158.37.7205-1.004Zm14.2908,10.249l-.72,1.005,1.957,1.403v-2.408h-1.237Zm1.309-9.763l.869.879.001-.001-.87-.878Zm3.15-1.278l-.012,1.236h.017l-.005-1.236Zm7.619-3.174l-.874-.874h0l.874.874Zm3.172-7.618l1.236.005v-.005h-1.236Zm0-40.6648h1.236v-.0037l-1.236.0037Zm-3.917-9.4155l-.875.8739.001.0004.874-.8743Zm-9.416-3.9173l.004-1.2363h-.004v1.2363Zm-49.9994,0v-1.2363h-.0037l.0037,1.2363Zm-9.4166,3.9162l-.8739-.8743-.005.0049.8789.8694Zm-3.9162,9.4166l-1.2362-.0099v.0099h1.2362Zm0,13.6665l1.2358.0307.0004-.0153v-.0154h-1.2362Zm-1.7913,3.5418h-1.2362v2.5225l1.9937-1.5455-.7575-.977Zm0-.0011h1.2363v-2.4725l-1.978,1.4836.7417.9889Zm-16.6664,12.5001l.7341.9947.0076-.0057-.7417-.989Zm-5.1248,1.7086l-.0098-1.2362h-.0027l.0125,1.2362Zm-4.1664-.9584l-.5535,1.1054.0021.001.5514-1.1064Zm-3.5753-3.2823l-1.0545.6453.0006.0009,1.0539-.6462Zm-1.3005-4.6758l1.2362.0086v-.0086h-1.2362Zm0-2.417h1.2362v-.982l-.9566-.2221-.2796,1.2041Zm-10.9632-6.9263l.9674-.7697h-.0001s-.9673.7697-.9673.7697Zm-4.2867-12.2394H0v.002s1.2362-.002,1.2362-.002ZM7.6679,7.8182l.8782.8701h.0001s-.8783-.8701-.8783-.8701ZM23.2367,1.2401V.0038h-.0117s.0117,1.2363.0117,1.2363Zm49.9986,0v1.2362h.0115l.0116-.0002-.0231-1.236Zm15.9738,6.3561l-.8661.8821h0s.866-.8821.866-.8821Zm6.6513,15.8525l-1.2362-.0002v.0599s.0057.0596.0057.0596l1.2305-.1193Zm-1.1363,3.4266l.9153.8309.0005-.0005-.9158-.8304Zm-6.602,0l.9158-.8304-.0005-.0005-.9153.8309Zm-1.1363-3.4266l1.2305.1193.006-.0615-.0002-.0618-1.2363.004Zm-3.9173-9.4155l-.8741.8742h0l.8741-.8742Zm-9.4165-3.9173l.0036-1.2362h-.0036v1.2362Zm-49.9986,0v-1.2362h-.0037s.0037,1.2362.0037,1.2362Zm-9.4155,3.9173l.8739.8744.0004-.0004-.8743-.874Zm-3.9173,9.4155l-1.2363-.0037v.0037h1.2363Zm3.1609,48.2956l.8742-.8741-.0003-.0003-.8739.8744Zm12.0889,13.9523h-1.2363v2.4615l1.9745-1.4698-.7382-.9917Zm14.9996-11.1661l.7382.9916.498-.3707v-.6209h-1.2362Zm0-11.3333l-1.2362-.0042v.0042h1.2362Zm6.4997-15.7081l-.8768-.8716-.001.0011.8778.8705Zm25.2897,39.3318l-.9664-.7709-1.6012,2.0072h2.5676v-1.2363Zm13.3328,0h1.2362v-1.2362h-1.2362v1.2362Zm4.4166-22.2492h1.2362v-3.532l-2.2026,2.761.9664.771Zm0,13.3328h-1.2363v1.2362h1.2363v-1.2362Zm13.3332,0l.966.7709,1.601-2.0072h-2.567v1.2363Zm-17.7498,22.2494h-1.2363v3.532l2.2027-2.761-.9664-.771Zm26.6678-60.4007h-49.9988v2.4725h49.9988v-2.4725Zm-.08.0026h-.002s.163,2.4672.163,2.4672l.002-.0002-.163-2.467Zm16.66,6.8641c-4.397-4.3972-10.36-6.8668-16.578-6.8668v2.4724c5.563,0,10.896,2.2092,14.829,6.1427l1.749-1.7483Zm6.867,16.5769c0-6.2175-2.471-12.1808-6.867-16.5769l-1.749,1.7483c3.933,3.9325,6.143,9.267,6.143,14.8286h2.473Zm0,40.6651v-40.6651h-2.473v40.6651h2.473Zm-4.469,12.948c2.899-3.694,4.473-8.255,4.469-12.949l-2.473.002c.004,4.14-1.384,8.163-3.941,11.421l1.945,1.526Zm-11.516,7.419c4.562-1.112,8.617-3.725,11.516-7.419l-1.945-1.526c-2.557,3.258-6.133,5.562-10.157,6.543l.586,2.402Zm.943,1.465v-2.666h-2.472v2.666h2.472Zm-1.467,5.254c.964-1.584,1.471-3.403,1.467-5.257l-2.472.005c.002,1.4-.38,2.772-1.107,3.967l2.112,1.285Zm-3.996,3.721c1.649-.849,3.032-2.137,3.996-3.721l-2.112-1.285c-.727,1.195-1.771,2.167-3.015,2.807l1.131,2.199Zm-4.739,1.137c1.649.009,3.277-.381,4.742-1.139l-1.136-2.196c-1.109.574-2.342.87-3.591.862l-.015,2.473Zm-5.888-1.905c1.713,1.251,3.783,1.918,5.903,1.905l-.015-2.473c-1.592.01-3.145-.49-4.43-1.429l-1.458,1.997Zm-13.2386-9.45l13.2496,9.458,1.436-2.012-13.249-9.459-1.4366,2.013Zm-28.8658.23h29.5841v-2.473h-29.5841v2.473Zm-16.5779-6.867c4.3972,4.397,10.3595,6.867,16.5779,6.867v-2.473c-5.5627,0-10.8961-2.209-14.8296-6.142l-1.7483,1.748Zm-6.8658-16.577c0,6.217,2.4697,12.181,6.8658,16.577l1.7483-1.748c-3.9323-3.933-6.1416-9.267-6.1416-14.829h-2.4725Zm0-2.2088v2.2088h2.4725v-2.2088h-2.4725Zm1.4557-4.257c-1.0779,1.1888-1.6063,2.7778-1.4498,4.3774l2.4607-.2407c-.0884-.9031.2098-1.8022.8207-2.4759l-1.8316-1.6608Zm4.2178-1.8675c-1.6059,0-3.1375.6775-4.2173,1.867l1.8306,1.6619c.6108-.6729,1.4774-1.0564,2.3867-1.0564v-2.4725Zm4.2163,1.867c-1.0798-1.1894-2.6113-1.867-4.2163-1.867v2.4725c.9081,0,1.7747.3834,2.3857,1.0564l1.8306-1.6619Zm1.4514,4.3769c.1551-1.5989-.373-3.1876-1.4509-4.3764l-1.8316,1.6608c.6109.6737.9093,1.5731.8216,2.4769l2.4609.2387Zm.0058,2.1724v-2.2918h-2.4724v2.2918h2.4724Zm3.5553,8.542c-2.2677-2.268-3.5458-5.34-3.5553-8.546l-2.4724.007c.0114,3.86,1.55,7.558,4.2794,10.287l1.7483-1.748Zm8.5453,3.555c-3.2068-.01-6.2788-1.288-8.5453-3.555l-1.7483,1.748c2.7283,2.729,6.426,4.267,10.2856,4.28l.008-2.473Zm31.0774,0h-31.0814v2.473h31.0814v-2.473Zm3.2696.999c-.9661-.645-2.101-.992-3.2626-.999l-.0141,2.473c.6778.004,1.3404.206,1.904.583l1.3727-2.057Zm.5499,1.03v-.002h-2.4725v.002h2.4725Zm13.7756,9.245l-14.2914-10.25-1.4409,2.009,14.2913,10.25,1.441-2.009Zm-1.957-5.621v6.625h2.473v-6.625h-2.473Zm1.676-4.017c-1.073,1.062-1.676,2.508-1.676,4.017h2.473c0-.85.339-1.663.941-2.259l-1.738-1.758Zm4.031-1.636c-1.509-.014-2.96.575-4.032,1.637l1.74,1.756c.603-.597,1.42-.928,2.268-.92l.024-2.473Zm6.733-2.811c-1.791,1.791-4.218,2.801-6.75,2.811l.01,2.473c3.184-.013,6.236-1.284,8.488-3.536l-1.748-1.748Zm2.81-6.748c-.009,2.532-1.02,4.957-2.81,6.748l1.748,1.748c2.252-2.252,3.523-5.302,3.534-8.487l-2.472-.009Zm0-40.6608v40.6648h2.472v-40.6648h-2.472Zm-3.555-8.5412c2.267,2.2665,3.545,5.3393,3.555,8.5448l2.472-.0073c-.011-3.8588-1.55-7.5577-4.279-10.2862l-1.748,1.7487Zm-8.545-3.5554c3.205.0095,6.278,1.2876,8.544,3.555l1.749-1.7479c-2.728-2.7296-6.427-4.2681-10.286-4.2796l-.007,2.4725Zm-49.9964,0h49.9994v-2.4725h-49.9994v2.4725Zm-8.5426,3.5543c2.2677-2.2667,5.3407-3.5448,8.5462-3.5543l-.0073-2.4725c-3.8587.0115-7.5575,1.5499-10.2868,4.2782l1.7479,1.7486Zm-3.554,8.5522c.0256-3.2067,1.3034-6.2769,3.5589-8.5571l-1.7578-1.7388c-2.708,2.7377-4.2427,6.4244-4.2735,10.2761l2.4724.0198Zm0,13.6566v-13.6665h-2.4724v13.6665h2.4724Zm-2.27,4.5188c1.3918-1.079,2.2259-2.7269,2.2696-4.4881l-2.4717-.0614c-.0253,1.0179-.5074,1.9711-1.3128,2.5955l1.5149,1.954Zm-1.9937-.9781v.0011h2.4725v-.0011h-2.4725Zm-14.6885,13.4891l16.6665-12.5001-1.4835-1.9779-16.6665,12.5,1.4835,1.978Zm-5.8567,1.9558c2.1063-.0168,4.1532-.6986,5.849-1.9501l-1.4681-1.9894c-1.2757.9415-2.8155,1.4545-4.4005,1.4671l.0196,2.4724Zm-4.7276-1.0882c1.4682.7318,3.0897,1.1048,4.7303,1.0881l-.025-2.4723c-1.2495.0127-2.4844-.2714-3.6025-.8287l-1.1028,2.2129Zm-4.0778-3.7425c.9825,1.6026,2.3934,2.8992,4.0757,3.7415l1.1069-2.2108c-1.2684-.6351-2.333-1.6132-3.0748-2.823l-2.1078,1.2923Zm-1.4828-5.3307c-.0132,1.8801.501,3.7262,1.4822,5.3298l2.109-1.2905c-.741-1.211-1.1287-2.6042-1.1188-4.022l-2.4724-.0173Zm-.0001-2.4083v2.417h2.4725v-2.417h-2.4725Zm-10.6943-6.1567c2.9422,3.6983,7.0486,6.2923,11.651,7.3609l.5592-2.4083c-4.0589-.9425-7.6805-3.2302-10.2753-6.4919l-1.9348,1.5393ZM0,64.1158c.0078,4.7257,1.6134,9.3101,4.5556,13.0072l1.9346-1.5396c-2.5948-3.2605-4.0109-7.3037-4.0178-11.4717L0,64.1158ZM0,23.4487v40.6651h2.4725V23.4487H0ZM6.7896,6.9482C2.4399,11.3387,0,17.269,0,23.4487h2.4725c0-5.528,2.1826-10.833,6.0736-14.7604l-1.7564-1.7401ZM23.225.0039c-6.1796.0585-12.0867,2.5536-16.4355,6.9444l1.7567,1.7398c3.8899-3.9275,9.174-6.1595,14.7022-6.2119l-.0234-2.4723Zm50.0103,0H23.2367v2.4725h49.9986V.0039Zm16.8399,6.7102C85.5828,2.3034,79.5057-.1133,73.2123.0041l.0461,2.472c5.6302-.105,11.0663,2.057,15.0846,6.0022l1.7322-1.7643Zm7.0214,16.7348c.0011-6.2948-2.5294-12.3255-7.0215-16.7349l-1.732,1.7645c4.0184,3.9443,6.282,9.339,6.2811,14.97l2.4724.0004Zm-1.4567,4.2568c1.0779-1.1887,1.606-2.7774,1.4509-4.3763l-2.4609.2386c.0877.9039-.2108,1.8032-.8216,2.4769l1.8316,1.6608Zm-4.2168,1.8675c1.6051,0,3.1366-.6775,4.2163-1.867l-1.8306-1.6618c-.6109.6729-1.4775,1.0563-2.3857,1.0563v2.4725Zm-4.2168-1.8675c1.0792,1.1902,2.6111,1.8675,4.2168,1.8675v-2.4725c-.9094,0-1.7756-.3835-2.3852-1.0558l-1.8316,1.6608Zm-1.4509-4.3763c-.155,1.5982.3715,3.1874,1.4514,4.3769l1.8306-1.6619c-.6109-.673-.9088-1.5719-.8211-2.4764l-2.4609-.2386Zm-3.561-8.422c2.2666,2.2665,3.5448,5.3385,3.5552,8.5453l2.4725-.008c-.0126-3.8596-1.551-7.5572-4.2794-10.2856l-1.7483,1.7483Zm-8.5461-3.5553c3.2065.0095,6.2784,1.2876,8.5461,3.5553l1.7483-1.7483c-2.7294-2.7294-6.4271-4.268-10.2871-4.2794l-.0073,2.4724Zm-49.9949,0h49.9986v-2.4724H23.6534v2.4724Zm-8.5412,3.5551c2.2665-2.2675,5.3383-3.5456,8.5448-3.5551l-.0073-2.4724c-3.8599.0114-7.5577,1.55-10.2861,4.2796l1.7486,1.7479Zm-3.5554,8.5452c.0095-3.2066,1.2876-6.2784,3.555-8.5448l-1.7479-1.7487c-2.7296,2.7284-4.2681,6.4263-4.2796,10.2861l2.4725.0074Zm0,40.6614V23.4487h-2.4725v40.6651h2.4725Zm2.7986,6.7561c-1.7924-1.7915-2.7986-4.2213-2.7986-6.7561h-2.4725c0,3.1902,1.2665,6.2493,3.5232,8.5049l1.7479-1.7488Zm6.7566,2.7991c-2.5348,0-4.9648-1.007-6.7563-2.7988l-1.7484,1.7482c2.2551,2.2554,5.314,3.523,8.5047,3.523v-2.4724Zm5.6946,12.0276c0-2.072.0003-3.823-.0712-5.2628-.0709-1.4269-.2155-2.6559-.5507-3.6518-.3489-1.0371-.9275-1.8867-1.8787-2.4339-.9019-.519-1.9932-.6791-3.194-.6791v2.4724c1.0284,0,1.609.1472,1.961.3497.3027.1742.56.4601.7684,1.0793.2222.6604.3562,1.6085.4246,2.9861.0678,1.3648.0681,3.0459.0681,5.1401h2.4725Zm13.0252-12.1577l-14.9996,11.1661,1.4764,1.9833,14.9996-11.1662-1.4764-1.9832Zm-.498-10.3417v11.3333h2.4724v-11.3333h-2.4724Zm6.8581-16.5786c-4.3742,4.4103-6.8369,10.3632-6.8581,16.5744l2.4724.0084c.019-5.562,2.2243-10.8925,6.1412-14.8418l-1.7555-1.741Zm16.1502-6.8652c-6.0729.0939-11.8673,2.5569-16.1492,6.8641l1.7535,1.7431c3.8271-3.8498,9.006-6.0511,14.434-6.1351l-.0383-2.4721Zm10.0173,48.3038h13.3328v-2.4725h-13.3328v2.4725Zm16.783-24.2565l-17.7494,22.2493,1.9328,1.5419,17.7493-22.2493-1.9327-1.5419Zm2.2026,14.1038v-13.3328h-2.4725v13.3328h2.4725Zm12.097-1.2363h-13.3332v2.4725h13.3332v-2.4725Zm-16.7834,24.2567l17.7494-22.2495-1.933-1.5419-17.7492,22.2493,1.9328,1.5421Zm-2.2027-14.104v13.333h2.4725v-13.333h-2.4725Z" style="fill:#1569c8;"/></g></svg>