<?xml version="1.0" encoding="UTF-8"?><svg id="a" xmlns="http://www.w3.org/2000/svg" viewBox="0 0 158.3496 158.3337"><path d="m108.5656,39.2908v-16.6756l-.001-.0013c-.026-5.9892-2.417-11.7265-6.652-15.9611C97.6781,2.4168,91.9411.0261,85.9519,0H22.6145c-5.9931.0137-11.7377,2.4007-15.9761,6.6378C2.4013,10.8766.0142,16.6209.0006,22.6139v51.6122c-.0398,5.2003,2.0155,10.198,5.701,13.8648,3.6868,3.6681,8.6944,5.6972,13.8947,5.6313v8.4125c-.0099,1.398.5008,2.75,1.4315,3.793.932,1.043,2.2168,1.704,3.6073,1.853,1.3903.149,2.7857-.224,3.9177-1.045l9.8959-7.274v-26.2259c0-9.0026,3.5761-17.6359,9.9432-24.0018,6.3659-6.3671,14.9992-9.9432,24.0018-9.9432h36.1719Zm-36.1705,11.3338h63.3375l.003-.0002c5.997,0,11.749,2.3819,15.99,6.6229,4.24,4.2409,6.624,9.9928,6.624,15.9897v51.7107c0,5.109-2.017,10.014-5.612,13.646s-8.478,5.698-13.588,5.751v8.412c-.013,1.025-.305,2.028-.846,2.9-.542.872-1.31,1.579-2.222,2.048-.925.473-1.962.686-2.999.616-1.038-.069-2.036-.42-2.889-1.013l-18.21-12.963h-39.5882c-6.0055,0-11.7647-2.39-16.0069-6.641-4.2423-4.252-6.6194-10.016-6.6057-16.023v-48.4438c-.0137-6.0016,2.3644-11.7609,6.6079-16.0044,4.2432-4.2433,10.004-6.6216,16.0044-6.6079Zm29.3925,52.6001v16.972l22.614-28.2538h-16.972v-16.9723l-22.6142,28.2541h16.9722Z" style="fill:#1569c8; fill-rule:evenodd;"/></svg>