<?xml version="1.0" encoding="utf-8"?>
<!-- Generator: Adobe Illustrator 26.5.0, SVG Export Plug-In . SVG Version: 6.00 Build 0)  -->
<svg version="1.1" id="Layer_1" xmlns="http://www.w3.org/2000/svg" xmlns:xlink="http://www.w3.org/1999/xlink" x="0px" y="0px"
	 viewBox="0 0 55 54" style="enable-background:new 0 0 55 54;" xml:space="preserve">
<style type="text/css">
	.st0{fill-rule:evenodd;clip-rule:evenodd;fill:#706E6B;}
</style>
<path class="st0" d="M53.8,27.1C48.9,17.2,38.8,10.4,27,10.4c-11.7,0-21.9,6.9-26.8,16.7c-0.3,0.6-0.3,1.4,0,1.9
	C5.1,38.8,15.3,45.7,27,45.7c11.7,0,21.9-6.9,26.8-16.7C54.1,28.4,54.1,27.7,53.8,27.1L53.8,27.1z M27,39.5
	c-6.3,0-11.4-5.1-11.4-11.4c0-6.3,5.1-11.4,11.4-11.4c6.3,0,11.4,5.1,11.4,11.4C38.4,34.4,33.4,39.5,27,39.5L27,39.5z M27,20.8
	c-4,0-7.3,3.2-7.3,7.3s3.2,7.3,7.3,7.3s7.3-3.2,7.3-7.3S31.1,20.8,27,20.8L27,20.8z"/>
</svg>
